{"title":"The Boy 2016 TS x264-Zi$T","uid":13415019,"size":639272880,"categoryP":"video","categoryS":"movies","magnet":"?xt=urn:btih:c30078c5a63fe1289be2b8441f6624ccd4d025e7&amp;dn=The+Boy+2016+TS+x264-Zi%24T&amp;tr=udp%3A%2F%2Ftracker.leechers-paradise.org%3A6969&amp;tr=udp%3A%2F%2Fzer0day.ch%3A1337&amp;tr=udp%3A%2F%2Fopen.demonii.com%3A1337&amp;tr=udp%3A%2F%2Ftracker.coppersurfer.tk%3A6969&amp;tr=udp%3A%2F%2Fexodus.desync.com%3A6969","seeders":9,"leechers":0,"uploader":"makintos13","files":1,"time":1454480999,"description":"The Boy 2016 TS x264-Zi$T\r\n\r\nScreens:\r\n \nhttp://imgmak.com/KEo\r\n \nhttp://imgmak.com/KEN\r\n \nhttp://imgmak.com/KEQ\r\n \nhttp://imgmak.com/KES\r\n\r\n:info:\r\nGeneral\r\nFormat profile : Base Media\r\nCodec ID : isom\r\nFile size : 610 MiB\r\nDuration : 1h 28mn\r\nOverall bit rate : 962 Kbps\r\nWriting application : Lavf56.15.104\r\n\r\nVideo\r\nID : 1\r\nFormat : AVC\r\nFormat/Info : Advanced Video Codec\r\nFormat profile :   \r\nFormat settings, CABAC : Yes\r\nFormat settings, ReFrames : 3 frames\r\nCodec ID : avc1\r\nCodec ID/Info : Advanced Video Coding\r\nDuration : 1h 28mn\r\nBit rate : 800 Kbps\r\nWidth : 900 pixels\r\nHeight : 420 pixels\r\nDisplay aspect ratio : 2.2:1\r\nOriginal display aspect rat : 2.2:1\r\nFrame rate mode : Constant\r\nFrame rate : 23.976 fps\r\nColor space : YUV\r\nChroma subsampling : 4:2:0\r\nBit depth : 8 bits\r\nScan type : Progressive\r\nBits/(Pixel*Frame) : 0.088\r\nStream size : 505 MiB (83%)\r\nWriting library : x264 core 135\r\nLanguage : English\r\n\r\nAudio\r\nID : 2\r\nFormat : AAC\r\nFormat/Info : Advanced Audio Codec\r\nFormat profile : LC\r\nCodec ID : 40\r\nDuration : 1h 28mn\r\nBit rate mode : Constant\r\nBit rate : 160 Kbps\r\nChannel(s) : 2 channels\r\nChannel positions : Front: L R\r\nSampling rate : 48.0 KHz\r\nCompression mode : Lossy\r\nStream size : 101 MiB (17%)\r\nLanguage : English\r\n:plot:\r\nAn American nanny is shocked that her new English family's boy is actually a life-sized doll. After she violates a list of strict rules, disturbing events make her believe that the doll is really alive.\r\n:cast:\r\nDirector: William Brent Bell\r\nWriter: Stacey Menear\r\nStars: Lauren Cohan, Rupert Evans, James Russell","torrent":{"xt":"urn:btih:c30078c5a63fe1289be2b8441f6624ccd4d025e7","amp;dn":"The+Boy+2016+TS+x264-Zi%24T","amp;tr":["udp%3A%2F%2Ftracker.leechers-paradise.org%3A6969","udp%3A%2F%2Fzer0day.ch%3A1337","udp%3A%2F%2Fopen.demonii.com%3A1337","udp%3A%2F%2Ftracker.coppersurfer.tk%3A6969","udp%3A%2F%2Fexodus.desync.com%3A6969"],"infoHash":"c30078c5a63fe1289be2b8441f6624ccd4d025e7","infoHashBuffer":{"type":"Buffer","data":[195,0,120,197,166,63,225,40,155,226,184,68,31,102,36,204,212,208,37,231]},"announce":[],"urlList":[]}}